# xmcd
#
# Track frame offsets: 
#        150
#        35143
#        52725
#        71812
#        90852
#        107826
#        132832
#        172981
#        191527
#        212156
#        237510
#        252886
#        274525
#
# Disc length: 3892 seconds
#
# Revision: 3
# Processed by: cddbd v1.5.2PL0 Copyright (c) Steve Scherf et al.
# Submitted via: ExactAudioCopy v0.99pb4
#
DISCID=b20f320d
DTITLE=Norig - Gadji
DYEAR=2006
DGENRE=Gypsy
TTITLE0=Ederlezi
TTITLE1=Abeav baro te keras
TTITLE2=Jag cumidos
TTITLE3=Gilaban gili rromalen
TTITLE4=Zuvli rromani
TTITLE5=Tutti frutti
TTITLE6=Fericit e omun pe lume
TTITLE7=Gadji
TTITLE8=Soven chave soven
TTITLE9=Tbiliso
TTITLE10=Me chajorri
TTITLE11=Hajri ma te dike
TTITLE12=Les p'tits papiers
EXTD=
EXTT0=
EXTT1=
EXTT2=
EXTT3=
EXTT4=
EXTT5=
EXTT6=
EXTT7=
EXTT8=
EXTT9=
EXTT10=
EXTT11=
EXTT12=
PLAYORDER=
